<?xml version="1.0" encoding="UTF-8"?>
<svg id="Capa_2" data-name="Capa 2" xmlns="http://www.w3.org/2000/svg" viewBox="0 0 622.23 282">
  <defs>
    <style>
      .cls-1 {
        fill: #ffde59;
      }
    </style>
  </defs>
  <g id="Capa_1-2" data-name="Capa 1">
    <g>
      <path class="cls-1" d="M264.67,1.5c-4.82-.57-8.39-1.22-11.98-1.37-45.05-1.85-80.28,15.99-99.57,56.81-17.01,35.98-29.6,74.06-44.04,111.25-.76,1.97-1.27,4.45-.78,6.42,6.63,26.73,13.46,53.41,20.92,82.75,1.89-5.06,2.83-7.37,3.62-9.72,11.68-35.1,22.79-70.4,35.21-105.24,7.61-21.35,16.59-42.28,26.09-62.88,10.65-23.1,29.51-33.65,55.01-32.14,3.13,.19,10.66,.03,14.31,.03,0-15.3,1.22-30.15,1.22-45.92Z"/>
      <path class="cls-1" d="M121.77,272.34c0-3.61,.13-4.35-.02-5.04-15.92-75.99-44.06-148.1-70.35-220.79-.79-2.17-3.76-5-5.78-5.06-14.78-.43-29.59-.23-45.62-.23,4.21,11.8,7.75,21.77,11.31,31.72,22.73,63.48,45.4,126.98,68.37,190.38,1.25,3.46,4.75,8.36,7.55,8.61,11.18,.99,22.51,.41,34.53,.41Z"/>
      <g>
        <path class="cls-1" d="M259.15,278.78h-51.74V114.84h51.74v163.94Z"/>
        <path class="cls-1" d="M442.76,95.17h-59.1v183.61h-51.89V95.17h-58.03V55.26h169.02v39.91Z"/>
        <path class="cls-1" d="M570.34,219.52c0-7.98-2.61-14.1-7.83-18.35-5.22-4.25-14.69-8.77-28.4-13.59-27.74-9-48.33-18.6-61.79-28.78-13.46-10.18-20.19-24.84-20.19-43.98s7.83-33.87,23.49-45.44c15.66-11.56,35.56-17.35,59.72-17.35,25.48,0,46,5.96,61.56,17.88,15.56,11.92,23.08,28.73,22.57,50.43l-.31,.92h-50.35c0-10.54-2.87-18.19-8.6-22.95-5.73-4.76-14.38-7.14-25.94-7.14-9.42,0-16.84,2.3-22.26,6.91-5.43,4.61-8.14,10.29-8.14,17.04s2.79,11.8,8.37,15.74c5.58,3.94,15.99,8.88,31.24,14.81,25.89,7.68,45.49,17.04,58.8,28.09,13.3,11.05,19.96,26.2,19.96,45.44s-7.68,35.03-23.03,46.13c-15.35,11.11-35.72,16.66-61.1,16.66s-46.7-5.96-64.25-17.88c-17.55-11.92-26.07-30.68-25.56-56.26l.31-.92h50.51c0,13,3.2,22.24,9.59,27.71,6.39,5.48,16.2,8.21,29.4,8.21,10.85,0,18.93-2.15,24.26-6.45,5.32-4.3,7.98-9.93,7.98-16.89Z"/>
      </g>
    </g>
  </g>
</svg>
